# xmcd CD database file
# Generated: Mon Mai 12 21:44:37 2003 by KSCD
# 
# Track frame offsets:
#       150
#       15411
#       31728
#       48639
#       76835
#       88701
#       100397
#       119473
#       132858
#
# Disc length: 1976 seconds
#
# Revision: 1
# Processed by: cddbd v1.4PL0 Copyright (c) Steve Scherf et al.
# Submitted via: Kscd 1.3.3
#
DISCID=6707b609
DTITLE=Otis, Johnny - The Essential Recordings
DYEAR=1900
DGENRE=
TTITLE0=Harlem Nocturne
TTITLE1=Low Down Dirty Dog Blues
TTITLE2=Barrelhouse Blues
TTITLE3=Waitin'
TTITLE4=Willie And The Hand Jive
TTITLE5=Country Girl
TTITLE6=Slo Fuse
TTITLE7=The Sgnifyin' Monkey
TTITLE8=Bad Luck Shadow
EXTD=
EXTT0=
EXTT1=
EXTT2=
EXTT3=
EXTT4=
EXTT5=
EXTT6=
EXTT7=
EXTT8=
PLAYORDER=
